<svg xmlns="http://www.w3.org/2000/svg" viewBox="0 0 800 450" width="800" height="450">
  <defs>
    <linearGradient id="sky3" x1="0" y1="0" x2="0" y2="1">
      <stop offset="0%" stop-color="#b8cfe0"/>
      <stop offset="50%" stop-color="#d0e4f0"/>
      <stop offset="100%" stop-color="#e8f0f8"/>
    </linearGradient>
    <linearGradient id="bay3" x1="0" y1="0" x2="0" y2="1">
      <stop offset="0%" stop-color="#7aa8c8"/>
      <stop offset="100%" stop-color="#5888a8"/>
    </linearGradient>
    <linearGradient id="facade3" x1="0" y1="0" x2="0" y2="1">
      <stop offset="0%" stop-color="#e8ddd0"/>
      <stop offset="100%" stop-color="#d8cdc0"/>
    </linearGradient>
    <linearGradient id="gold3" x1="0" y1="0" x2="1" y2="0">
      <stop offset="0%" stop-color="#b89450"/>
      <stop offset="100%" stop-color="#d4aa60"/>
    </linearGradient>
    <linearGradient id="mansard3" x1="0" y1="0" x2="0" y2="1">
      <stop offset="0%" stop-color="#4a5a6a"/>
      <stop offset="100%" stop-color="#3a4a58"/>
    </linearGradient>
    <filter id="shadow3">
      <feDropShadow dx="3" dy="5" stdDeviation="5" flood-color="#000000" flood-opacity="0.2"/>
    </filter>
  </defs>

  <!-- Sky with subtle fog (San Francisco) -->
  <rect width="800" height="450" fill="url(#sky3)"/>
  <!-- Fog wisps -->
  <ellipse cx="150" cy="90" rx="120" ry="30" fill="white" opacity="0.35"/>
  <ellipse cx="650" cy="110" rx="140" ry="25" fill="white" opacity="0.3"/>
  <ellipse cx="400" cy="60" rx="200" ry="20" fill="white" opacity="0.2"/>

  <!-- Bay in background -->
  <rect x="0" y="140" width="800" height="80" fill="url(#bay3)" opacity="0.4"/>
  <!-- Bay shimmer -->
  <line x1="50" y1="155" x2="150" y2="155" stroke="white" stroke-width="1" opacity="0.3"/>
  <line x1="200" y1="165" x2="320" y2="165" stroke="white" stroke-width="1" opacity="0.25"/>
  <line x1="480" y1="158" x2="580" y2="158" stroke="white" stroke-width="1" opacity="0.3"/>
  <line x1="620" y1="170" x2="760" y2="170" stroke="white" stroke-width="1" opacity="0.2"/>

  <!-- Far hills / Marin -->
  <polygon points="0,170 60,130 120,145 200,120 280,140 360,115 440,135 520,118 600,138 680,122 760,140 800,125 800,200 0,200" fill="#8aaa90" opacity="0.5"/>
  <polygon points="0,185 80,155 160,170 240,150 320,165 400,148 480,165 560,150 640,168 720,155 800,168 800,220 0,220" fill="#7a9880" opacity="0.6"/>

  <!-- Street / ground -->
  <rect x="0" y="380" width="800" height="70" fill="#9a9890"/>
  <rect x="0" y="365" width="800" height="18" fill="#b8b0a0"/>
  <!-- Sidewalk -->
  <rect x="0" y="360" width="800" height="8" fill="#d4ccbc"/>

  <!-- Street trees -->
  <rect x="95" y="290" width="8" height="80" fill="#8a6a4a"/>
  <ellipse cx="99" cy="272" rx="28" ry="32" fill="#4a7a38" opacity="0.85"/>
  <ellipse cx="85" cy="285" rx="20" ry="24" fill="#5a8a48" opacity="0.75"/>
  <ellipse cx="113" cy="280" rx="18" ry="22" fill="#4a7a38" opacity="0.8"/>

  <rect x="693" y="285" width="8" height="85" fill="#8a6a4a"/>
  <ellipse cx="697" cy="267" rx="30" ry="34" fill="#4a7a38" opacity="0.85"/>
  <ellipse cx="680" cy="280" rx="22" ry="26" fill="#5a8a48" opacity="0.75"/>
  <ellipse cx="715" cy="275" rx="20" ry="24" fill="#4a7a38" opacity="0.8"/>

  <!-- Main Edwardian building -->
  <!-- Base / foundation -->
  <rect x="165" y="200" width="470" height="175" fill="url(#facade3)" filter="url(#shadow3)"/>

  <!-- Rusticated base / ground floor -->
  <rect x="165" y="320" width="470" height="55" fill="#d0c5b8"/>
  <line x1="165" y1="330" x2="635" y2="330" stroke="#c0b5a8" stroke-width="1.5"/>
  <line x1="165" y1="345" x2="635" y2="345" stroke="#c0b5a8" stroke-width="1.5"/>

  <!-- Mansard roof -->
  <polygon points="150,200 400,85 650,200" fill="url(#mansard3)" filter="url(#shadow3)"/>
  <!-- Roof trim -->
  <polygon points="150,200 400,85 650,200 645,200 400,91 155,200" fill="#5a6a7a" opacity="0.4"/>
  <!-- Roof edge cornice -->
  <rect x="148" y="196" width="504" height="10" fill="#3a4a58"/>
  <rect x="148" y="194" width="504" height="4" fill="url(#gold3)" opacity="0.7"/>

  <!-- Dormers -->
  <!-- Left dormer -->
  <rect x="235" y="145" width="80" height="50" fill="#d8cdc0"/>
  <polygon points="225,147 275,120 325,147" fill="#4a5a6a"/>
  <rect x="245" y="152" width="60" height="40" fill="#8ab4c8" opacity="0.7"/>
  <line x1="275" y1="152" x2="275" y2="192" stroke="#6a94a8" stroke-width="1.5"/>
  <rect x="245" y="152" width="60" height="40" fill="white" opacity="0.15"/>

  <!-- Center dormer -->
  <rect x="360" y="120" width="80" height="60" fill="#d8cdc0"/>
  <polygon points="350,122 400,92 450,122" fill="#4a5a6a"/>
  <rect x="368" y="128" width="64" height="50" fill="#8ab4c8" opacity="0.7"/>
  <line x1="400" y1="128" x2="400" y2="178" stroke="#6a94a8" stroke-width="1.5"/>
  <rect x="368" y="128" width="64" height="50" fill="white" opacity="0.15"/>

  <!-- Right dormer -->
  <rect x="485" y="145" width="80" height="50" fill="#d8cdc0"/>
  <polygon points="475,147 525,120 575,147" fill="#4a5a6a"/>
  <rect x="493" y="152" width="60" height="40" fill="#8ab4c8" opacity="0.7"/>
  <line x1="523" y1="152" x2="523" y2="192" stroke="#6a94a8" stroke-width="1.5"/>
  <rect x="493" y="152" width="60" height="40" fill="white" opacity="0.15"/>

  <!-- Second floor decorative cornice band -->
  <rect x="160" y="260" width="480" height="12" fill="#ccc0b0"/>
  <rect x="160" y="260" width="480" height="4" fill="url(#gold3)" opacity="0.45"/>

  <!-- Second floor windows (tall, arched) -->
  <!-- Left window -->
  <rect x="195" y="215" width="70" height="90" fill="#8ab4c8" rx="35 35 0 0"/>
  <rect x="205" y="215" width="50" height="70" fill="#8ab4c8" rx="25 25 0 0" opacity="0.5"/>
  <rect x="195" y="215" width="70" height="90" fill="white" opacity="0.12" rx="35 35 0 0"/>
  <!-- Window surround -->
  <rect x="192" y="212" width="76" height="95" fill="none" stroke="#c8b898" stroke-width="3" rx="38 38 0 0"/>
  <rect x="192" y="212" width="76" height="3" fill="url(#gold3)" opacity="0.4" rx="38 38 0 0"/>

  <!-- Center-left window -->
  <rect x="305" y="210" width="75" height="95" fill="#8ab4c8" rx="37 37 0 0"/>
  <rect x="315" y="210" width="55" height="75" fill="#8ab4c8" rx="27 27 0 0" opacity="0.5"/>
  <rect x="305" y="210" width="75" height="95" fill="white" opacity="0.12" rx="37 37 0 0"/>
  <rect x="302" y="207" width="81" height="100" fill="none" stroke="#c8b898" stroke-width="3" rx="40 40 0 0"/>
  <rect x="302" y="207" width="81" height="3" fill="url(#gold3)" opacity="0.4" rx="40 40 0 0"/>

  <!-- Center-right window -->
  <rect x="420" y="210" width="75" height="95" fill="#8ab4c8" rx="37 37 0 0"/>
  <rect x="430" y="210" width="55" height="75" fill="#8ab4c8" rx="27 27 0 0" opacity="0.5"/>
  <rect x="420" y="210" width="75" height="95" fill="white" opacity="0.12" rx="37 37 0 0"/>
  <rect x="417" y="207" width="81" height="100" fill="none" stroke="#c8b898" stroke-width="3" rx="40 40 0 0"/>
  <rect x="417" y="207" width="81" height="3" fill="url(#gold3)" opacity="0.4" rx="40 40 0 0"/>

  <!-- Right window -->
  <rect x="535" y="215" width="70" height="90" fill="#8ab4c8" rx="35 35 0 0"/>
  <rect x="545" y="215" width="50" height="70" fill="#8ab4c8" rx="25 25 0 0" opacity="0.5"/>
  <rect x="535" y="215" width="70" height="90" fill="white" opacity="0.12" rx="35 35 0 0"/>
  <rect x="532" y="212" width="76" height="95" fill="none" stroke="#c8b898" stroke-width="3" rx="38 38 0 0"/>
  <rect x="532" y="212" width="76" height="3" fill="url(#gold3)" opacity="0.4" rx="38 38 0 0"/>

  <!-- Ground floor windows -->
  <rect x="185" y="325" width="65" height="50" fill="#8ab4c8" rx="1"/>
  <line x1="217" y1="325" x2="217" y2="375" stroke="#6a94a8" stroke-width="1.5"/>
  <line x1="185" y1="350" x2="250" y2="350" stroke="#6a94a8" stroke-width="1.5"/>
  <rect x="185" y="325" width="65" height="50" fill="white" opacity="0.12" rx="1"/>

  <rect x="545" y="325" width="65" height="50" fill="#8ab4c8" rx="1"/>
  <line x1="577" y1="325" x2="577" y2="375" stroke="#6a94a8" stroke-width="1.5"/>
  <line x1="545" y1="350" x2="610" y2="350" stroke="#6a94a8" stroke-width="1.5"/>
  <rect x="545" y="325" width="65" height="50" fill="white" opacity="0.12" rx="1"/>

  <!-- Grand entrance -->
  <!-- Portico columns -->
  <rect x="330" y="265" width="18" height="100" fill="#e0d5c8" rx="2"/>
  <rect x="450" y="265" width="18" height="100" fill="#e0d5c8" rx="2"/>
  <!-- Column bases -->
  <rect x="325" y="358" width="28" height="8" fill="#d0c5b8" rx="1"/>
  <rect x="445" y="358" width="28" height="8" fill="#d0c5b8" rx="1"/>
  <!-- Column caps (Ionic) -->
  <rect x="323" y="262" width="32" height="6" fill="#c9a84c" opacity="0.65" rx="1"/>
  <rect x="443" y="262" width="32" height="6" fill="#c9a84c" opacity="0.65" rx="1"/>

  <!-- Pediment above door -->
  <polygon points="318,264 400,232 482,264" fill="#d8cdc0"/>
  <polygon points="325,264 400,238 475,264 470,264 400,244 330,264" fill="#c8bdb0" opacity="0.6"/>
  <!-- Pediment gold line -->
  <line x1="318" y1="264" x2="482" y2="264" stroke="#c9a84c" stroke-width="2" opacity="0.5"/>

  <!-- Front door (grand double) -->
  <rect x="348" y="295" width="104" height="73" fill="#2a1e14" rx="2"/>
  <!-- Door panels -->
  <rect x="355" y="302" width="40" height="28" fill="#3a2a1e" rx="1"/>
  <rect x="403" y="302" width="40" height="28" fill="#3a2a1e" rx="1"/>
  <rect x="355" y="336" width="40" height="26" fill="#3a2a1e" rx="1"/>
  <rect x="403" y="336" width="40" height="26" fill="#3a2a1e" rx="1"/>
  <!-- Fanlight above door -->
  <path d="M 348,295 A 52,30 0 0,1 452,295" fill="#8ab4c8" opacity="0.7"/>
  <path d="M 400,295 L 348,295 A 52,30 0 0,1 452,295 Z" fill="none" stroke="#6a94a8" stroke-width="1"/>
  <!-- Fanlight spokes -->
  <line x1="400" y1="295" x2="360" y2="272" stroke="#6a94a8" stroke-width="1" opacity="0.8"/>
  <line x1="400" y1="295" x2="380" y2="268" stroke="#6a94a8" stroke-width="1" opacity="0.8"/>
  <line x1="400" y1="295" x2="400" y2="267" stroke="#6a94a8" stroke-width="1" opacity="0.8"/>
  <line x1="400" y1="295" x2="420" y2="268" stroke="#6a94a8" stroke-width="1" opacity="0.8"/>
  <line x1="400" y1="295" x2="440" y2="272" stroke="#6a94a8" stroke-width="1" opacity="0.8"/>
  <!-- Door hardware -->
  <circle cx="394" cy="322" r="3" fill="#c9a84c"/>
  <circle cx="410" cy="322" r="3" fill="#c9a84c"/>

  <!-- Iron fence -->
  <rect x="130" y="355" width="540" height="6" fill="#2a2a2a"/>
  <!-- Fence posts -->
  <rect x="138" y="330" width="3" height="31" fill="#2a2a2a"/><circle cx="139.5" cy="330" r="3" fill="#c9a84c" opacity="0.7"/>
  <rect x="158" y="330" width="3" height="31" fill="#2a2a2a"/><circle cx="159.5" cy="330" r="3" fill="#c9a84c" opacity="0.7"/>
  <rect x="178" y="330" width="3" height="31" fill="#2a2a2a"/><circle cx="179.5" cy="330" r="3" fill="#c9a84c" opacity="0.7"/>
  <rect x="198" y="330" width="3" height="31" fill="#2a2a2a"/><circle cx="199.5" cy="330" r="3" fill="#c9a84c" opacity="0.7"/>
  <rect x="218" y="330" width="3" height="31" fill="#2a2a2a"/><circle cx="219.5" cy="330" r="3" fill="#c9a84c" opacity="0.7"/>
  <rect x="238" y="330" width="3" height="31" fill="#2a2a2a"/><circle cx="239.5" cy="330" r="3" fill="#c9a84c" opacity="0.7"/>
  <rect x="258" y="330" width="3" height="31" fill="#2a2a2a"/><circle cx="259.5" cy="330" r="3" fill="#c9a84c" opacity="0.7"/>
  <rect x="278" y="330" width="3" height="31" fill="#2a2a2a"/><circle cx="279.5" cy="330" r="3" fill="#c9a84c" opacity="0.7"/>
  <rect x="298" y="330" width="3" height="31" fill="#2a2a2a"/><circle cx="299.5" cy="330" r="3" fill="#c9a84c" opacity="0.7"/>
  <rect x="318" y="330" width="3" height="31" fill="#2a2a2a"/><circle cx="319.5" cy="330" r="3" fill="#c9a84c" opacity="0.7"/>
  <rect x="338" y="330" width="3" height="31" fill="#2a2a2a"/><circle cx="339.5" cy="330" r="3" fill="#c9a84c" opacity="0.7"/>
  <rect x="358" y="330" width="3" height="31" fill="#2a2a2a"/><circle cx="359.5" cy="330" r="3" fill="#c9a84c" opacity="0.7"/>
  <rect x="378" y="330" width="3" height="31" fill="#2a2a2a"/><circle cx="379.5" cy="330" r="3" fill="#c9a84c" opacity="0.7"/>
  <rect x="398" y="330" width="3" height="31" fill="#2a2a2a"/><circle cx="399.5" cy="330" r="3" fill="#c9a84c" opacity="0.7"/>
  <rect x="418" y="330" width="3" height="31" fill="#2a2a2a"/><circle cx="419.5" cy="330" r="3" fill="#c9a84c" opacity="0.7"/>
  <rect x="438" y="330" width="3" height="31" fill="#2a2a2a"/><circle cx="439.5" cy="330" r="3" fill="#c9a84c" opacity="0.7"/>
  <rect x="458" y="330" width="3" height="31" fill="#2a2a2a"/><circle cx="459.5" cy="330" r="3" fill="#c9a84c" opacity="0.7"/>
  <rect x="478" y="330" width="3" height="31" fill="#2a2a2a"/><circle cx="479.5" cy="330" r="3" fill="#c9a84c" opacity="0.7"/>
  <rect x="498" y="330" width="3" height="31" fill="#2a2a2a"/><circle cx="499.5" cy="330" r="3" fill="#c9a84c" opacity="0.7"/>
  <rect x="518" y="330" width="3" height="31" fill="#2a2a2a"/><circle cx="519.5" cy="330" r="3" fill="#c9a84c" opacity="0.7"/>
  <rect x="538" y="330" width="3" height="31" fill="#2a2a2a"/><circle cx="539.5" cy="330" r="3" fill="#c9a84c" opacity="0.7"/>
  <rect x="558" y="330" width="3" height="31" fill="#2a2a2a"/><circle cx="559.5" cy="330" r="3" fill="#c9a84c" opacity="0.7"/>
  <rect x="578" y="330" width="3" height="31" fill="#2a2a2a"/><circle cx="579.5" cy="330" r="3" fill="#c9a84c" opacity="0.7"/>
  <rect x="598" y="330" width="3" height="31" fill="#2a2a2a"/><circle cx="599.5" cy="330" r="3" fill="#c9a84c" opacity="0.7"/>
  <rect x="618" y="330" width="3" height="31" fill="#2a2a2a"/><circle cx="619.5" cy="330" r="3" fill="#c9a84c" opacity="0.7"/>
  <rect x="638" y="330" width="3" height="31" fill="#2a2a2a"/><circle cx="639.5" cy="330" r="3" fill="#c9a84c" opacity="0.7"/>
  <rect x="658" y="330" width="3" height="31" fill="#2a2a2a"/><circle cx="659.5" cy="330" r="3" fill="#c9a84c" opacity="0.7"/>
  <!-- Gate -->
  <rect x="375" y="335" width="20" height="26" fill="none" stroke="#2a2a2a" stroke-width="2"/>
  <rect x="405" y="335" width="20" height="26" fill="none" stroke="#2a2a2a" stroke-width="2"/>

  <!-- Label bar -->
  <rect x="0" y="390" width="800" height="60" fill="#1a1008" opacity="0.72"/>
  <text x="400" y="416" font-family="Georgia, serif" font-size="13" fill="#c9a84c" text-anchor="middle" letter-spacing="3">789 BROADWAY 路 PACIFIC HEIGHTS 路 SAN FRANCISCO</text>
  <text x="400" y="438" font-family="Georgia, serif" font-size="11" fill="white" text-anchor="middle" opacity="0.5" letter-spacing="1">EDWARDIAN ESTATE 路 BAY VIEWS 路 FORMAL ENTERTAINING</text>
</svg>
